<?xml version="1.0" encoding="UTF-8"?><svg id="_2_color_stroke_original_copy" xmlns="http://www.w3.org/2000/svg" viewBox="0 0 192 192"><defs><style>.cls-1{fill:#2cccd3;}</style></defs><path d="m183.76,90.93c-.03-.16-.08-.37-.08-.43v-.39l-.08-.38c-2.37-11.72-9.38-20.29-20.85-25.48-.09-3.12-.43-6.19-1.01-8.99-2.03-9.46-7.21-17.69-14.96-23.81-10.53-8.8-23.04-12.26-37.16-10.28l-.1.02c-13.08,2.21-23.57,8.91-31.2,19.94-3.75-.46-7.62-.18-11.78.82-11.18,2.6-19.37,9.16-24.37,19.51-2.87.28-6.07.6-9.04,1.17l-.27.06c-9.38,2.5-17.32,8.95-21.8,17.7-4.28,8.37-4.91,17.99-1.72,26.37,5.32,14.33,18.35,23.23,34.01,23.23h2.59v-7.73h-2.59c-12.35,0-22.6-6.97-26.78-18.22-2.42-6.37-1.93-13.71,1.36-20.13,3.46-6.76,9.57-11.75,16.78-13.72,2.75-.52,5.76-.81,8.69-1.09l.48-.05c1.61-.05,3.66-.68,4.76-3.23l.11-.24c3.96-8.71,10.35-13.98,19.56-16.12,3.5-.85,6.67-1.04,9.66-.59,2.47.63,4.83-.3,6.04-2.4,6.44-9.81,15.43-15.75,26.72-17.67,12.04-1.68,22.22,1.13,31.12,8.59l.09.08c6.44,5.06,10.55,11.59,12.22,19.37.57,2.73.86,5.84.86,8.97v.65l.29.85c.48,1.43,1.23,2.85,3.47,3.63,9.56,4.1,15.17,10.64,17.15,20,.04.64.14,1.15.23,1.55.03.16.08.37.08.43v5.53c-.31,2.24-.93,4.47-1.39,6.02-3.17,8.21-9.69,14.09-17.91,16.53v7.99c11.58-2.66,20.86-10.54,25.18-21.91l.09-.27c.55-1.86,1.34-4.67,1.72-7.61l.03-6.29c0-.85-.14-1.52-.24-2.01Z"/><g><path class="cls-1" d="m89.09,178.63c-3.35,0-6.52-1.38-8.79-3.77-.97.25-1.96.37-2.98.37-6.69,0-12.13-5.44-12.13-12.13,0-.13,0-.25,0-.38-4.64-1.74-7.9-6.26-7.9-11.36,0-1.39.24-2.76.7-4.07-2.23-2.25-3.52-5.32-3.52-8.55,0-2.8.94-5.45,2.65-7.57-1.7-2.12-2.65-4.77-2.65-7.57,0-3.53,1.53-6.82,4.11-9.1-.84-1.68-1.29-3.54-1.29-5.44,0-5.2,3.28-9.72,8.03-11.41.88-5.83,5.92-10.32,11.99-10.32.48,0,.95.03,1.43.08,2.28-2.93,5.8-4.7,9.59-4.7,6.69,0,12.13,5.44,12.13,12.12v67.46c.5,1.34.75,2.75.75,4.2,0,6.69-5.44,12.13-12.13,12.13Zm-7.03-9.87l1.18,1.73c1.32,1.94,3.51,3.09,5.85,3.09,3.91,0,7.08-3.18,7.08-7.08,0-.95-.18-1.87-.55-2.73l-.2-.47v-68.45c0-3.9-3.18-7.08-7.08-7.08-2.58,0-4.96,1.4-6.2,3.67l-.97,1.76-1.93-.55c-.62-.18-1.26-.26-1.91-.26-3.89,0-7.06,3.15-7.08,7.04l.28,2.27-2.35.42c-3.37.6-5.82,3.53-5.82,6.96,0,1.66.56,3.22,1.62,4.5l1.94,2.36-2.68,1.46c-2.28,1.24-3.69,3.63-3.69,6.22,0,2.2.99,4.23,2.72,5.58l2.56,1.99-2.56,1.99c-1.73,1.35-2.72,3.38-2.72,5.58,0,2.31,1.12,4.47,3.01,5.79l1.88,1.32-1.14,2c-.61,1.07-.93,2.28-.93,3.51,0,3.47,2.58,6.48,6.01,7l2.74.41-.66,2.69c-.13.52-.19,1.07-.19,1.64,0,3.91,3.18,7.08,7.08,7.08.98,0,1.93-.2,2.82-.58l1.92-.83Z"/><rect class="cls-1" x="95.43" y="93.96" width="5.05" height=".88"/><g><g><path class="cls-1" d="m108.04,105.95h-10.09c-1.39,0-2.52-1.13-2.52-2.52s1.13-2.52,2.52-2.52h9.05l7.27-7.27c.98-.99,2.58-.99,3.57,0,.99.99.99,2.58,0,3.57l-8.01,8.01c-.47.47-1.11.74-1.78.74Z"/><path class="cls-1" d="m119.23,98.94c1.85-1.85,1.85-4.86,0-6.71-1.85-1.85-4.86-1.85-6.71,0-1.85,1.85-1.85,4.86,0,6.71,1.85,1.85,4.86,1.85,6.71,0Z"/></g><g><path class="cls-1" d="m116.05,171.98c-.65,0-1.29-.25-1.78-.74l-7.27-7.27h-9.05c-1.39,0-2.52-1.13-2.52-2.52s1.13-2.52,2.52-2.52h10.09c.67,0,1.31.27,1.78.74l8.01,8.01c.99.99.99,2.58,0,3.57-.49.49-1.14.74-1.78.74Z"/><path class="cls-1" d="m112.53,172.65c1.85,1.85,4.86,1.85,6.71,0,1.85-1.85,1.85-4.86,0-6.71-1.85-1.85-4.86-1.85-6.71,0-1.85,1.85-1.85,4.86,0,6.71Z"/></g><g><path class="cls-1" d="m112.08,123.13h-14.13c-1.39,0-2.52-1.13-2.52-2.52s1.13-2.52,2.52-2.52h13.08l14.67-14.67c.47-.47,1.11-.74,1.78-.74h11.37c1.39,0,2.52,1.13,2.52,2.52s-1.13,2.52-2.52,2.52h-10.33l-14.67,14.67c-.47.47-1.11.74-1.78.74Z"/><path class="cls-1" d="m138.62,109.95c2.62,0,4.74-2.12,4.74-4.74s-2.12-4.74-4.74-4.74-4.74,2.12-4.74,4.74,2.12,4.74,4.74,4.74Z"/></g><g><path class="cls-1" d="m138.86,159.98h-11.37c-.67,0-1.31-.27-1.78-.74l-14.67-14.67h-13.08c-1.39,0-2.52-1.13-2.52-2.52s1.13-2.52,2.52-2.52h14.13c.67,0,1.31.27,1.78.74l14.67,14.67h10.33c1.39,0,2.52,1.13,2.52,2.52s-1.13,2.52-2.52,2.52Z"/><path class="cls-1" d="m138.62,162.2c2.62,0,4.74-2.12,4.74-4.74s-2.12-4.74-4.74-4.74-4.74,2.12-4.74,4.74,2.12,4.74,4.74,4.74Z"/></g><path class="cls-1" d="m133.27,133.7h-.01l-35.32-.2c-1.39,0-2.52-1.14-2.51-2.54,0-1.39,1.17-2.51,2.54-2.51l35.32.2c1.39,0,2.52,1.14,2.51,2.54,0,1.39-1.14,2.51-2.52,2.51Z"/></g><path class="cls-1" d="m70.19,131.17c-.76,0-1.5-.34-2-.99-2.93-3.83-6.64-12.75.29-19.14,1.02-.94,2.62-.88,3.56.15.94,1.03.88,2.62-.15,3.56-2.18,2-2.82,4.51-1.97,7.65.72,2.65,2.25,4.69,2.27,4.71.84,1.11.62,2.69-.48,3.53-.46.35-.99.52-1.53.52Z"/><path class="cls-1" d="m87.65,168.08c-1.38,0-2.51-1.11-2.52-2.5-.07-7.16-8.99-8.03-9.37-8.06-1.38-.12-2.41-1.34-2.3-2.73.12-1.39,1.33-2.42,2.71-2.3,4.81.39,13.92,3.62,14,13.05.01,1.39-1.11,2.53-2.5,2.55,0,0-.02,0-.02,0Z"/><path class="cls-1" d="m86.88,128.31c-.51,0-1.04-.03-1.59-.09-1.38-.16-2.38-1.41-2.21-2.8.16-1.38,1.41-2.38,2.8-2.21,7.18.83,9.09-7.92,9.17-8.29.28-1.36,1.62-2.24,2.99-1.95,1.36.29,2.24,1.62,1.95,2.99-.93,4.44-4.83,12.36-13.1,12.36Z"/><path class="cls-1" d="m69.44,153.41c-.15,0-.3-.01-.45-.04-1.37-.25-2.28-1.55-2.04-2.92.84-4.75,4.91-13.51,14.31-12.71,1.39.12,2.42,1.34,2.3,2.73-.12,1.39-1.34,2.42-2.73,2.3-7.13-.61-8.84,8.2-8.91,8.57-.22,1.22-1.29,2.07-2.48,2.07Z"/><path class="cls-1" d="m89.1,145.71c-.1,0-.21,0-.31-.02-4.78-.59-13.75-4.21-13.44-13.63.05-1.39,1.21-2.49,2.61-2.44,1.39.05,2.48,1.21,2.44,2.61-.24,7.16,8.64,8.41,9.02,8.46,1.38.18,2.36,1.44,2.18,2.82-.16,1.27-1.24,2.2-2.5,2.2Z"/><path class="cls-1" d="m80.77,110.39c-1.15,0-2.18-.79-2.45-1.95-2.14-9.18,5.95-14.47,10.52-15.99,1.32-.44,2.75.28,3.19,1.6.44,1.32-.28,2.75-1.6,3.19-.39.13-8.83,3.09-7.2,10.05.32,1.36-.53,2.71-1.88,3.03-.19.04-.39.07-.58.07Z"/><path class="cls-1" d="m84.83,117.93c-1.11,0-2.12-.73-2.43-1.85-.11-.39-2.62-8.97-9.66-7.71-1.37.25-2.68-.67-2.93-2.04-.25-1.37.67-2.68,2.04-2.93,9.28-1.66,14.14,6.69,15.42,11.34.37,1.34-.42,2.73-1.77,3.1-.22.06-.45.09-.67.09Z"/><circle class="cls-1" cx="140.72" cy="131.18" r="10.59"/></g></svg>
